<?xml version="1.0" encoding="utf-8"?>
<!-- Generator: Adobe Illustrator 15.1.0, SVG Export Plug-In . SVG Version: 6.00 Build 0)  -->
<!DOCTYPE svg PUBLIC "-//W3C//DTD SVG 1.1//EN" "http://www.w3.org/Graphics/SVG/1.1/DTD/svg11.dtd">
<svg version="1.1" id="Layer_1" xmlns="http://www.w3.org/2000/svg" xmlns:xlink="http://www.w3.org/1999/xlink" x="0px" y="0px"
	 width="123px" height="35px" viewBox="-45.5 -1.5 123 35" enable-background="new -45.5 -1.5 123 35" xml:space="preserve">
<g id="_x30_3">
	<g>
		<g>
			<path fill="#222222" d="M77.5,30.027c0,1.909-1.571,3.473-3.493,3.473H-42.009c-1.92,0-3.491-1.563-3.491-3.473V1.973
				c0-1.91,1.57-3.473,3.491-3.473H74.007c1.922,0,3.493,1.563,3.493,3.473V30.027z"/>
		</g>
		<g>
			<g>
				<path fill="#E6E6E6" d="M30.933,7.972c-0.202,0.292-0.573,0.407-0.66,0.76c-0.162,0.644,0,1.823,0,2.59
					c0,2.422-0.04,5.357,0.05,7.608c0.232,0.33,0.845,0.278,1.379,0.309c-0.52,0.739-2.24,0.275-3.367,0.407
					c-0.226-0.063,0.067-0.242,0.102-0.305c0.326-0.561,0.201-1.924,0.201-2.999c0-2.457,0-5.312,0-7.711c-0.408,0-0.814,0-1.224,0
					c0.312-0.169,0.854-0.58,1.273-0.66C29.363,7.843,30.138,8.065,30.933,7.972z"/>
				<path fill="#E6E6E6" d="M1.093,9.697c-0.211,0.347-0.531,0.592-0.815,0.865c-0.274,0.26-0.543,0.58-1.021,0.607
					c-0.172-0.088,0.205-0.458,0.307-0.607c-0.969-0.976-1.979-1.713-3.929-1.575C-7,9.174-8.684,11.412-8.548,14.112
					c0.146,2.914,2.183,5.414,5.102,5.688c1.123,0.104,2.1-0.042,2.855-0.411c0-0.862,0-1.727,0-2.586
					c-0.86-0.012-1.587,0.112-2.446,0.1c0.348-0.297,0.838-0.452,1.226-0.709c1.136,0,2.277,0,3.415,0
					c0.186,0.08-0.086,0.23-0.152,0.302c-0.103,0.117-0.251,0.177-0.308,0.355c-0.095,0.33-0.049,0.931-0.05,1.424
					c-0.002,0.485,0.001,0.995,0,1.42c-2.583,0.654-5.37,1.189-7.602,0.406c-2.193-0.773-4.006-2.928-3.773-6.141
					c0.221-3.066,2.723-5.33,5.866-5.584C-2.034,8.184-0.318,8.813,1.093,9.697z"/>
				<path fill="#E6E6E6" d="M6.041,12.133c1.98-0.221,3.359,0.672,4.03,1.829c0.288,0.493,0.521,1.299,0.511,2.029
					c-0.03,2.49-2.125,4.064-4.387,3.96c-2.018-0.091-4.105-1.648-3.825-4.365c0.147-1.426,1.161-2.583,2.242-3.097
					C4.982,12.313,5.461,12.198,6.041,12.133z M4,15.891c0.156,1.49,1.085,3.55,2.753,3.55c1.705,0,2.321-1.541,2.144-3.349
					C8.753,14.617,8,13.203,7.113,12.794c-0.305-0.139-0.81-0.199-1.172-0.152C4.446,12.83,3.799,13.94,4,15.891z"/>
				<path fill="#E6E6E6" d="M14.966,12.133c2.548-0.271,4.562,1.333,4.543,3.857c-0.022,2.434-2.146,4.064-4.389,3.96
					c-2.114-0.099-4.119-1.699-3.825-4.417c0.06-0.575,0.416-1.349,0.562-1.572C12.403,13.11,13.531,12.287,14.966,12.133z
					 M12.875,15.127c-0.015,1.932,0.945,4.313,2.806,4.313c1.258,0,2.021-0.995,2.142-2.028c0.271-2.28-0.87-5.021-2.958-4.768
					C13.488,12.808,12.887,13.825,12.875,15.127z"/>
				<path fill="#E6E6E6" d="M27.721,12.285c-0.236,0.292-0.673,0.379-0.97,0.61c-0.304,0-0.612,0-0.92,0
					c0.008,0.225,0.232,0.365,0.361,0.506c0.135,0.159,0.308,0.319,0.404,0.508c0.437,0.852,0.285,2.101-0.255,2.789
					c-0.428,0.548-1.383,0.885-1.327,1.629c0.041,0.494,0.516,0.688,0.922,1.015c0.743,0.599,1.57,1.187,1.479,2.536
					c-0.127,1.795-1.92,2.812-3.78,2.944c-1.878,0.136-4.242-0.47-4.126-2.488c0.022-0.479,0.264-0.972,0.508-1.271
					c0.732-0.902,2.266-1.25,3.829-1.369c-0.188-0.295-0.646-1.14-0.256-1.728c-1.931,0.232-3.239-0.936-3.269-2.485
					c-0.02-1.102,0.585-1.959,1.225-2.434C22.951,12.003,25.447,12.343,27.721,12.285z M23.23,17.412
					c0.718,0.284,1.631-0.04,1.938-0.56c0.801-1.348-0.421-3.647-1.427-3.907c-0.155-0.041-0.602-0.05-0.816,0
					C20.873,13.417,22.043,16.944,23.23,17.412z M21.344,21.063c-0.617,0.732-0.429,1.592,0,2.135
					c0.797,1.012,3.112,1.21,4.187,0.556c0.484-0.295,0.97-0.994,0.714-1.876c-0.12-0.4-0.549-0.778-0.768-0.964
					c-0.172-0.149-0.808-0.659-1.021-0.71c-0.312-0.078-0.699,0.015-1.019,0.051C22.325,20.384,21.758,20.574,21.344,21.063z"/>
				<path fill="#E6E6E6" d="M38.436,18.527c-0.557,0.872-1.741,1.599-3.522,1.423c-2.506-0.256-4.201-3.568-2.859-5.989
					c0.585-1.055,1.883-1.774,2.908-1.878c1.673-0.171,2.784,0.552,3.27,2.031c-0.086,0.164-0.311,0.189-0.458,0.252
					c-0.744,0.303-1.646,0.642-2.45,0.964c-0.595,0.236-1.194,0.528-2.143,0.508C33.233,18.037,36.03,20.116,38.436,18.527z
					 M33.842,12.998c-0.691,0.53-0.943,1.636-0.661,2.737c1.083-0.561,2.383-0.91,3.368-1.57
					C36.549,12.712,34.804,12.259,33.842,12.998z"/>
			</g>
			<g>
				<g>
					<path fill="#E6E6E6" d="M48.52,16.454c0,1.114-0.244,1.997-0.741,2.651c-0.495,0.65-1.159,0.979-1.986,0.979
						c-0.984,0-1.736-0.345-2.254-1.032V22.7h-0.791v-9.885h0.737l0.037,1.003c0.52-0.76,1.267-1.142,2.248-1.142
						c0.859,0,1.533,0.323,2.021,0.971c0.488,0.646,0.733,1.543,0.733,2.691v0.114H48.52z M47.728,16.311
						c0-0.91-0.188-1.629-0.564-2.159c-0.379-0.528-0.897-0.791-1.573-0.791c-0.485,0-0.902,0.115-1.252,0.349
						c-0.35,0.234-0.619,0.572-0.8,1.015v3.427c0.188,0.409,0.458,0.72,0.812,0.937c0.353,0.217,0.773,0.321,1.255,0.321
						c0.669,0,1.187-0.263,1.563-0.793C47.543,18.086,47.728,17.319,47.728,16.311z"/>
					<path fill="#E6E6E6" d="M51.167,19.951H50.37V9.814h0.797V19.951z"/>
					<path fill="#E6E6E6" d="M57.854,19.951c-0.083-0.223-0.131-0.556-0.15-0.996c-0.282,0.361-0.639,0.641-1.066,0.836
						c-0.434,0.195-0.889,0.293-1.372,0.293c-0.687,0-1.248-0.195-1.673-0.577c-0.428-0.381-0.642-0.864-0.642-1.449
						c0-0.693,0.289-1.244,0.876-1.646c0.579-0.405,1.391-0.61,2.426-0.61h1.443v-0.81c0-0.512-0.157-0.912-0.473-1.205
						c-0.319-0.292-0.783-0.438-1.388-0.438c-0.551,0-1.01,0.139-1.37,0.423c-0.361,0.279-0.546,0.617-0.546,1.013l-0.792-0.005
						c0-0.57,0.263-1.06,0.792-1.479c0.531-0.413,1.186-0.621,1.958-0.621c0.8,0,1.432,0.199,1.894,0.597
						c0.459,0.398,0.699,0.953,0.715,1.667v3.379c0,0.692,0.071,1.208,0.219,1.552v0.077H57.854z M55.36,19.39
						c0.533,0,1.006-0.134,1.42-0.388c0.42-0.257,0.722-0.593,0.916-1.021v-1.57h-1.421c-0.787,0.008-1.411,0.15-1.854,0.431
						c-0.451,0.279-0.669,0.663-0.669,1.15c0,0.402,0.146,0.73,0.442,1C54.496,19.255,54.884,19.39,55.36,19.39z"/>
					<path fill="#E6E6E6" d="M62.774,18.82l2.092-6.005h0.858l-3.063,8.353L62.5,21.543c-0.391,0.861-1,1.296-1.823,1.296
						c-0.192,0-0.395-0.034-0.609-0.094l-0.008-0.65l0.41,0.036c0.392,0,0.707-0.092,0.948-0.282
						c0.24-0.195,0.442-0.525,0.615-0.987l0.347-0.967l-2.707-7.079h0.872L62.774,18.82z"/>
				</g>
			</g>
		</g>
		<path fill="#A29F9D" d="M-32.384,26.095l11.709-6.73l-2.373-2.398L-32.384,26.095z M-35.976,3.881
			c-0.175,0.184-0.281,0.469-0.281,0.841v21.844c0,0.411,0.132,0.71,0.342,0.895l11.818-11.557L-35.976,3.881z M-15.719,14.767
			l-3.204-1.839l-3.061,2.996l2.647,2.677l3.618-2.079C-14.88,16.039-14.88,15.251-15.719,14.767z M-20.267,12.157l-12.572-7.223
			l9.806,9.928L-20.267,12.157z"/>
	</g>
</g>
<g id="Layer_1_1_">
</g>
</svg>
